{"title":"Horrid Henry The Movie 2011 DVDRIP XVID AC3 -SPEEDY","uid":6844980,"size":1464975385,"categoryP":"video","categoryS":"movies","magnet":"?xt=urn:btih:aff8644d863f86e4ac6496d435c1d0a1905afe75&amp;dn=Horrid+Henry+The+Movie+2011+DVDRIP+XVID+AC3+-SPEEDY&amp;tr=udp%3A%2F%2Ftracker.openbittorrent.com%3A80&amp;tr=udp%3A%2F%2Fopen.demonii.com%3A1337&amp;tr=udp%3A%2F%2Ftracker.coppersurfer.tk%3A6969&amp;tr=udp%3A%2F%2Fexodus.desync.com%3A6969","seeders":1,"leechers":0,"uploader":"LegendET","files":3,"time":1322316812,"description":"[center][img]http://img192.imageshack.us/img192/7370/hmgd51vg.jpg[/img]\n\n\n\n Horrid Henry The Movie 2011 DVDRIP XVID AC3 - SPEEDY\n\n\n\nIMDB: http://www.imdb.com/title/tt1684555/\n\n\n\nGeneral\n\n\nComplete name                    : Horrid Henry The Movie 2011 DVDRIP XVID AC3 - \n\nSPEEDY.avi\nFormat                           : AVI\nFormat/Info                      : Audio Video Interleave\nFormat profile                   : OpenDML\nFormat settings                  : rec\nFile size                        : 1.36 GiB\nDuration                         : 1h 29mn\nOverall bit rate                 : 2 194 Kbps\n\n\n\n\n\nVideo\n\n\nID                               : 0\nFormat                           : MPEG-4 Visual\nFormat profile                   : Advanced Simple@L5\nFormat settings, BVOP            : 2\nFormat settings, QPel            : No\nFormat settings, GMC             : No warppoints\nFormat settings, Matrix          : Default (H.263)\nCodec ID                         : XVID\nCodec ID/Hint                    : XviD\nDuration                         : 1h 29mn\nBit rate                         : 1 805 Kbps\nWidth                            : 720 pixels\nHeight                           : 512 pixels\nDisplay aspect ratio             : 1.406\nFrame rate                       : 25.000 fps\nColor space                      : YUV\nChroma subsampling               : 4:2:0\nBit depth                        : 8 bits\nScan type                        : Progressive\nCompression mode                 : Lossy\nBits/(Pixel*Frame)               : 0.196\nStream size                      : 1.12 GiB (82%)\n\n\n\n\n\n\n\nAudio\n\nID                               : 1\nFormat                           : AC-3\nFormat/Info                      : Audio Coding 3\nMode extension                   : CM (complete main)\nCodec ID                         : 2000\nDuration                         : 1h 29mn\nBit rate mode                    : Constant\nBit rate                         : 384 Kbps\nChannel(s)                       : 2 channels\nChannel positions                : Front: L R\nSampling rate                    : 48.0 KHz\nBit depth                        : 16 bits\nCompression mode                 : Lossy\nStream size                      : 244 MiB (17%)\nAlignment                        : Aligned on interleaves\nInterleave, duration             : 64 ms (1.60 video frames)\nInterleave, preload duration     : 192 ms\n\n\n\n\n\n\nPLOT\n\nStoryline\n\nWhen Henry fails yet again to hand in his homework for the umpteenth time, he has no \n\nidea that this will set off a chain of events which will see him forming an unlikely \n\nalliance with Moody Margaret, the infuriating girl next door, and his irritating \n\nlittle brother Perfect Peter, outwitting corrupt School Inspectors and toppling an \n\nevil Headmaster, winning a talent contest and facing his ultimate nemesis with no way \n\nout - all because he is trying to save the very school which he has always professed \n\nto hate! Written by Anonymous     \n\n\nGenres: Adventure | Comedy | Family   \n\n\nDirector: Nick Moore\n\nWriters: Lucinda Whiteley (screenplay), Francesca Simon (book)\n\nStars: Anjelica Huston, Richard E. Grant and Parminder Nagra \n\n\n\n\nSOURCE\nVideo : HORRID HENRY 2011 PAL DVDR Legend-Rg\nAudio : HORRID HENRY 2011 PAL DVDR Legend-Rg\n\n\nADDED A LITTLE: brightness and contrass it up abit and little bit sharper \n\nAnd Cropped IT N  Tweak hue N SAT\n\nsorry there is no sample file \n\n\n\n\nIF YOU ENJOY THIS PLEAS REP ME ENJOY FOLKS \n\n\n\nSCREENS:\n\n\n[img]http://img706.imageshack.us/img706/1039/mzwfvbvm.jpg[/img]\n[img]http://img832.imageshack.us/img832/802/anuhuopf.jpg[/img]\n[img]http://img266.imageshack.us/img266/3918/7clnjoxf.jpg[/img]\n[img]http://img231.imageshack.us/img231/8616/6np0zh0.jpg[/img]\n[img]http://img822.imageshack.us/img822/9564/5adouuv4.jpg[/img]\n[img]http://img9.imageshack.us/img9/5839/2imhkqb7.jpg[/img][/center]","torrent":{"xt":"urn:btih:aff8644d863f86e4ac6496d435c1d0a1905afe75","amp;dn":"Horrid+Henry+The+Movie+2011+DVDRIP+XVID+AC3+-SPEEDY","amp;tr":["udp%3A%2F%2Ftracker.openbittorrent.com%3A80","udp%3A%2F%2Fopen.demonii.com%3A1337","udp%3A%2F%2Ftracker.coppersurfer.tk%3A6969","udp%3A%2F%2Fexodus.desync.com%3A6969"],"infoHash":"aff8644d863f86e4ac6496d435c1d0a1905afe75","infoHashBuffer":{"type":"Buffer","data":[175,248,100,77,134,63,134,228,172,100,150,212,53,193,208,161,144,90,254,117]},"announce":[],"urlList":[]}}